<svg width="121" height="21" viewBox="0 0 121 21" fill="none" xmlns="http://www.w3.org/2000/svg">
<path d="M15.4707 10.6564C15.4707 13.7354 14.6159 16.0914 12.9063 17.7245C11.1967 19.349 8.7343 20.1613 5.51921 20.1613H0.301056V1.50864H6.06781C9.03625 1.50864 11.3455 2.30816 12.9956 3.9072C14.6457 5.50624 15.4707 7.75596 15.4707 10.6564ZM12.2556 10.7584C12.2556 6.29301 10.1675 4.0603 5.99126 4.0603H3.35029V17.5969H5.51921C10.0101 17.5969 12.2556 15.3174 12.2556 10.7584Z" fill="white"/>
<path d="M25.3329 20.4165C23.1384 20.4165 21.4203 19.7785 20.1785 18.5027C18.9452 17.2184 18.3286 15.4535 18.3286 13.208C18.3286 10.903 18.9027 9.09133 20.0509 7.77297C21.1992 6.45461 22.777 5.79543 24.7843 5.79543C26.647 5.79543 28.1184 6.36105 29.1986 7.49229C30.2788 8.62353 30.8189 10.18 30.8189 12.1618V13.7821H21.4161C21.4586 15.1515 21.8286 16.2062 22.526 16.9462C23.2235 17.6777 24.2059 18.0434 25.4732 18.0434C26.3068 18.0434 27.0808 17.9669 27.7952 17.8138C28.5182 17.6522 29.2922 17.3885 30.1172 17.0228V19.4596C29.3858 19.8083 28.6458 20.055 27.8973 20.1996C27.1488 20.3442 26.294 20.4165 25.3329 20.4165ZM24.7843 8.06641C23.8316 8.06641 23.0661 8.36836 22.4878 8.97225C21.9179 9.57615 21.5777 10.4565 21.4671 11.6132H27.8718C27.8548 10.448 27.5741 9.56764 27.0297 8.97225C26.4854 8.36836 25.7369 8.06641 24.7843 8.06641Z" fill="white"/>
<path d="M43.7048 16.1424C43.7048 17.5203 43.203 18.5793 42.1994 19.3192C41.1957 20.0507 39.7583 20.4165 37.8871 20.4165C36.0073 20.4165 34.4976 20.1315 33.3579 19.5617V16.9717C35.0164 17.7372 36.5602 18.12 37.9891 18.12C39.8348 18.12 40.7577 17.5629 40.7577 16.4486C40.7577 16.0914 40.6556 15.7937 40.4515 15.5555C40.2473 15.3174 39.9114 15.0707 39.4436 14.8156C38.9758 14.5604 38.3251 14.2712 37.4915 13.948C35.867 13.3186 34.7655 12.6892 34.1871 12.0598C33.6173 11.4304 33.3323 10.6138 33.3323 9.61017C33.3323 8.40238 33.8172 7.46677 34.7868 6.80334C35.7649 6.1314 37.0918 5.79543 38.7674 5.79543C40.426 5.79543 41.9952 6.1314 43.4752 6.80334L42.5056 9.06156C40.9831 8.43215 39.703 8.11745 38.6653 8.11745C37.0833 8.11745 36.2923 8.56824 36.2923 9.46983C36.2923 9.91212 36.4964 10.2864 36.9047 10.5926C37.3214 10.8988 38.223 11.3198 39.6094 11.8556C40.7747 12.3064 41.621 12.7189 42.1483 13.0932C42.6757 13.4674 43.0669 13.9012 43.3221 14.3945C43.5773 14.8794 43.7048 15.462 43.7048 16.1424Z" fill="white"/>
<path d="M49.8544 12.7104L51.5512 10.5926L55.8125 6.0506H59.27L53.5925 12.1108L59.6272 20.1613H56.1059L51.5767 13.9735L49.9309 15.3259V20.1613H46.9582V0.309357H49.9309V9.99292L49.7778 12.7104H49.8544Z" fill="white"/>
<path d="M68.6729 20.1613H65.6236V4.12409H60.1376V1.50864H74.1589V4.12409H68.6729V20.1613Z" fill="white"/>
<path d="M79.7088 20.1613H76.7106V6.0506H79.7088V20.1613ZM76.532 2.31241C76.532 1.77656 76.6766 1.36404 76.9658 1.07486C77.2635 0.785667 77.6845 0.641073 78.2288 0.641073C78.7562 0.641073 79.1645 0.785667 79.4536 1.07486C79.7513 1.36404 79.9002 1.77656 79.9002 2.31241C79.9002 2.82275 79.7513 3.22676 79.4536 3.52445C79.1645 3.81364 78.7562 3.95824 78.2288 3.95824C77.6845 3.95824 77.2635 3.81364 76.9658 3.52445C76.6766 3.22676 76.532 2.82275 76.532 2.31241Z" fill="white"/>
<path d="M95.8991 20.1613H92.8882V11.4601C92.8882 10.3799 92.684 9.57615 92.2758 9.0488C91.8675 8.51295 91.2296 8.24503 90.362 8.24503C89.2053 8.24503 88.3547 8.62353 87.8103 9.38052C87.2745 10.129 87.0066 11.3793 87.0066 13.1315V20.1613H84.0084V6.0506H86.3559L86.7769 7.90056H86.93C87.3213 7.22862 87.8869 6.70978 88.6269 6.34404C89.3754 5.9783 90.1961 5.79543 91.0892 5.79543C93.2581 5.79543 94.6956 6.53542 95.4015 8.01538H95.6057C96.0224 7.31793 96.6093 6.77357 97.3663 6.38232C98.1233 5.99106 98.9909 5.79543 99.969 5.79543C101.653 5.79543 102.878 6.22071 103.643 7.07126C104.417 7.92182 104.804 9.21891 104.804 10.9626V20.1613H101.806V11.4601C101.806 10.3799 101.598 9.57615 101.181 9.0488C100.773 8.51295 100.135 8.24503 99.2673 8.24503C98.102 8.24503 97.2472 8.61077 96.7029 9.34225C96.167 10.0652 95.8991 11.1794 95.8991 12.6849V20.1613Z" fill="white"/>
<path d="M115.151 20.4165C112.957 20.4165 111.239 19.7785 109.997 18.5027C108.764 17.2184 108.147 15.4535 108.147 13.208C108.147 10.903 108.721 9.09133 109.869 7.77297C111.018 6.45461 112.595 5.79543 114.603 5.79543C116.466 5.79543 117.937 6.36105 119.017 7.49229C120.097 8.62353 120.637 10.18 120.637 12.1618V13.7821H111.235C111.277 15.1515 111.647 16.2062 112.345 16.9462C113.042 17.6777 114.024 18.0434 115.292 18.0434C116.125 18.0434 116.899 17.9669 117.614 17.8138C118.337 17.6522 119.111 17.3885 119.936 17.0228V19.4596C119.204 19.8083 118.464 20.055 117.716 20.1996C116.967 20.3442 116.113 20.4165 115.151 20.4165ZM114.603 8.06641C113.65 8.06641 112.885 8.36836 112.306 8.97225C111.736 9.57615 111.396 10.4565 111.286 11.6132H117.69C117.673 10.448 117.393 9.56764 116.848 8.97225C116.304 8.36836 115.555 8.06641 114.603 8.06641Z" fill="white"/>
</svg>
