<svg width="30" height="30" viewBox="0 0 30 30" fill="none" xmlns="http://www.w3.org/2000/svg">
<path d="M15.0485 2.50513V2.71562C21.7953 2.71562 27.2643 8.18462 27.2643 14.9314C27.2643 21.6782 21.7953 27.1472 15.0485 27.1472C8.30168 27.1472 2.83268 21.6782 2.83268 14.9314H2.62219C2.62219 21.7946 8.1853 27.3577 15.0485 27.3577C21.9117 27.3577 27.4748 21.7946 27.4748 14.9314C27.4735 8.06823 21.9104 2.50513 15.0485 2.50513Z" fill="#55A226" stroke="#55A126" stroke-width="0.2"/>
<path d="M27.0526 14.9314C27.0526 21.5618 21.6777 26.9367 15.0473 26.9367C8.41684 26.9367 3.04194 21.5618 3.04194 14.9314H2.83145C2.83145 21.6782 8.30046 27.1472 15.0473 27.1472C21.7941 27.1472 27.2631 21.6782 27.2631 14.9314C27.2631 8.18461 21.7941 2.71561 15.0473 2.71561V2.9261C21.6789 2.9261 27.0526 8.301 27.0526 14.9314Z" fill="#5AAB29" stroke="#5AAB29" stroke-width="0.2"/>
<path d="M26.8433 14.9314C26.8433 21.4454 21.5625 26.7262 15.0485 26.7262C8.53447 26.7262 3.25367 21.4454 3.25367 14.9314H3.04318C3.04318 21.5618 8.41808 26.9367 15.0485 26.9367C21.6789 26.9367 27.0538 21.5618 27.0538 14.9314C27.0538 8.30099 21.6789 2.92609 15.0485 2.92609V3.13658C21.5625 3.13658 26.8433 8.41738 26.8433 14.9314Z" fill="#5CB02B" stroke="#5CB02B" stroke-width="0.2"/>
<path d="M15.0485 26.7262C21.5625 26.7262 26.8433 21.4454 26.8433 14.9314C26.8433 8.41737 21.5625 3.13657 15.0485 3.13657V3.34706C21.4461 3.34706 26.6328 8.53376 26.6328 14.9314C26.6328 21.329 21.4461 26.5157 15.0485 26.5157C8.65085 26.5157 3.46415 21.329 3.46415 14.9314H3.25366C3.25366 21.4454 8.53446 26.7262 15.0485 26.7262Z" fill="#5EB52B" stroke="#5EB52B" stroke-width="0.2"/>
<path d="M3.46417 14.9314C3.46417 21.329 8.65087 26.5157 15.0485 26.5157C21.4461 26.5157 26.6328 21.329 26.6328 14.9314C26.6328 8.53378 21.4461 3.34708 15.0485 3.34708V14.9314H3.46417Z" fill="#5FB92A" stroke="#5FB92A" stroke-width="0.2"/>
<path d="M10.5056 4.27072C6.3652 6.03759 3.46292 10.1446 3.46292 14.9301H15.0473L10.5056 4.27072Z" fill="#ECECEC" stroke="#CECECE" stroke-width="0.2"/>
<path d="M15.0485 14.9314V3.34708C13.4364 3.34708 11.9011 3.67643 10.5069 4.27199L15.0485 14.9339V14.9314Z" fill="#FF5715" stroke="#FF5715" stroke-width="0.2"/>
<path d="M10.2592 3.69004L10.1763 3.49689C5.73496 5.39129 2.62219 9.79794 2.62219 14.9314H2.83268C2.83268 9.88461 5.89344 5.55349 10.2592 3.69004Z" fill="#B0B0B0" stroke="#B0B0B0" stroke-width="0.2"/>
<path d="M10.3409 3.88443L10.2592 3.69003C5.89343 5.55224 2.83267 9.8846 2.83267 14.9302H3.04316C3.04316 9.97128 6.05068 5.71444 10.3409 3.88443Z" fill="#BBBBBB" stroke="#BBBBBB" stroke-width="0.2"/>
<path d="M3.04318 14.9314H3.25367C3.25367 10.0592 6.20919 5.87665 10.4239 4.07758L10.341 3.88443C6.0507 5.71445 3.04318 9.97128 3.04318 14.9314Z" fill="#CACACA" stroke="#CACACA" stroke-width="0.2"/>
<path d="M10.5056 4.27073L10.4227 4.07758C6.20669 5.87664 3.25241 10.0579 3.25241 14.9314H3.4629C3.46414 10.1459 6.36518 6.0376 10.5056 4.27073Z" fill="#DDDDDD" stroke="#DDDDDD" stroke-width="0.2"/>
<path d="M15.0485 2.71559V2.5051C13.3188 2.5051 11.6732 2.85921 10.1763 3.49687L10.2592 3.69003C11.7289 3.06351 13.3485 2.71559 15.0485 2.71559Z" fill="#F2340F" stroke="#F2340F" stroke-width="0.2"/>
<path d="M10.341 3.88444C11.7859 3.26783 13.3769 2.9261 15.0472 2.9261V2.71561C13.3472 2.71561 11.7289 3.06353 10.258 3.69005L10.341 3.88444Z" fill="#F93A0D" stroke="#F93A0D" stroke-width="0.2"/>
<path d="M15.0485 3.13658V2.92609C13.3782 2.92609 11.7871 3.26782 10.3422 3.88443L10.4252 4.07759C11.8441 3.47212 13.4067 3.13658 15.0485 3.13658Z" fill="#FF3F0B" stroke="#FF3F0B" stroke-width="0.2"/>
<path d="M15.0485 3.34706V3.13657C13.4067 3.13657 11.8441 3.47211 10.4239 4.07758L10.5069 4.27073C11.9011 3.67641 13.4364 3.34706 15.0485 3.34706Z" fill="#FF4A12" stroke="#FF4A12" stroke-width="0.2"/>
<path d="M17.8443 7.63612C17.7873 7.61383 17.7254 7.63612 17.6969 7.68936L15.2255 12.3684C15.1574 12.3635 15.0906 12.3597 15.0262 12.3597C13.6778 12.3597 12.5808 13.4568 12.5808 14.8051C12.5808 16.0322 13.4884 17.066 14.7006 17.227L16.434 24.5842C16.4489 24.6474 16.5021 24.6882 16.5652 24.6882C16.5727 24.6882 16.5813 24.6882 16.59 24.6857C16.6631 24.6734 16.7113 24.6127 16.7039 24.5396L16.0204 17.0413C16.9045 16.6488 17.4728 15.7759 17.4728 14.8064C17.4728 14.0647 17.1422 13.375 16.5652 12.9083L17.9161 7.77603C17.9309 7.7166 17.9012 7.6584 17.8443 7.63612Z" fill="#191919"/>
<path d="M15.0275 16.6265C16.0327 16.6265 16.8476 15.8116 16.8476 14.8064C16.8476 13.8012 16.0327 12.9863 15.0275 12.9863C14.0222 12.9863 13.2073 13.8012 13.2073 14.8064C13.2073 15.8116 14.0222 16.6265 15.0275 16.6265Z" fill="#262626"/>
<path d="M15.0274 15.3722C15.3399 15.3722 15.5933 15.1189 15.5933 14.8064C15.5933 14.4939 15.3399 14.2405 15.0274 14.2405C14.7149 14.2405 14.4616 14.4939 14.4616 14.8064C14.4616 15.1189 14.7149 15.3722 15.0274 15.3722Z" fill="#191919"/>
<path d="M15.0275 15.2596C15.2777 15.2596 15.4806 15.0567 15.4806 14.8064C15.4806 14.5561 15.2777 14.3532 15.0275 14.3532C14.7772 14.3532 14.5743 14.5561 14.5743 14.8064C14.5743 15.0567 14.7772 15.2596 15.0275 15.2596Z" fill="#262626"/>
<path fill-rule="evenodd" clip-rule="evenodd" d="M28.3341 14.6083C28.3291 14.425 28.3081 14.061 28.3081 14.061C27.8475 6.99474 21.8671 1.47125 14.7241 1.6446C11.3687 1.72631 8.33142 3.05116 6.0408 5.16719C3.52731 7.48877 1.91273 10.7637 1.76911 14.394C1.75796 14.6788 1.75425 14.9648 1.76168 15.2533C1.93997 22.5796 8.04416 28.3953 15.3704 28.217C19.2298 28.1229 22.6707 26.3845 25.0356 23.6878C27.1603 21.2671 28.4183 18.0751 28.3341 14.6083ZM14.5607 27.3499V26.1059C14.5607 25.8372 14.7786 25.6193 15.0485 25.6193C15.3172 25.6193 15.5351 25.8372 15.5351 26.1059V27.3506C19.0823 27.2125 22.2331 25.5946 24.4066 23.1083C26.2215 21.0322 27.3532 18.3513 27.4663 15.4193H26.223C25.953 15.418 25.7351 15.2001 25.7351 14.9314C25.7351 14.6628 25.953 14.4448 26.2217 14.4448H27.4665C27.2137 7.93414 21.9787 2.75933 15.5351 2.51252V3.76314C15.5351 4.03182 15.3172 4.24974 15.0473 4.24974C14.7786 4.24974 14.5607 4.03182 14.5607 3.76314V2.51231C13.0758 2.57074 11.6611 2.88754 10.3583 3.4189C8.97898 3.98103 7.72471 4.78336 6.6475 5.77266C4.28136 7.94441 2.7646 11.0176 2.62964 14.4312L2.6293 14.4436H3.87277C4.14269 14.4436 4.36061 14.6615 4.36061 14.9314C4.36061 15.2001 4.14269 15.418 3.87401 15.418H2.62926C2.88189 21.9286 8.11725 27.1027 14.5607 27.3499Z" fill="#191919"/>
<path d="M24.7046 4.81358C19.2928 -0.341686 10.8156 -0.329179 5.41762 4.69977C5.2125 4.89112 5.00989 5.08998 4.81353 5.29509C-0.538193 10.9131 -0.320572 19.8354 5.2963 25.187C10.9132 30.5374 19.8369 30.321 25.1874 24.7043C25.3124 24.5729 25.4337 24.4391 25.5526 24.304C30.5241 18.671 30.1901 10.0389 24.7046 4.81358ZM24.8659 23.6512C24.7471 23.7863 24.627 23.9201 24.502 24.0514C19.5117 29.2905 11.1883 29.4918 5.94916 24.5017C0.71 19.5115 0.508638 11.1883 5.49891 5.94919C5.69527 5.74283 5.89789 5.54522 6.10425 5.35512C11.1408 0.703875 19.0189 0.705125 24.0517 5.49895C29.1596 10.3641 29.4785 18.3959 24.8659 23.6512Z" fill="#F4F4F4"/>
<path d="M29.9955 14.636C29.7949 6.3675 22.9045 -0.19729 14.636 0.00453162C10.8026 0.0973945 7.33694 1.62777 4.74049 4.06697C1.73545 6.89 -0.103233 10.9277 0.00448791 15.364C0.205072 23.6326 7.0955 30.1961 15.364 29.9955C19.6902 29.8903 23.5496 27.9538 26.2178 24.9463C28.6483 22.2062 30.0908 18.5771 29.9955 14.636ZM25.4415 24.2071C22.9627 27.0152 19.3695 28.8267 15.338 28.9245C7.6601 29.1102 1.26123 23.0159 1.07551 15.338C1.06808 15.0557 1.07179 14.7759 1.0817 14.4986C1.21666 10.6912 2.89438 7.25279 5.51807 4.80864C7.92383 2.56755 11.1245 1.16222 14.662 1.07679C22.1603 0.894777 28.4366 6.70428 28.8997 14.1284C28.9108 14.3054 28.9195 14.4837 28.9245 14.6632C29.0124 18.3084 27.6838 21.6651 25.4415 24.2071Z" fill="#E0E0E0"/>
</svg>
